<svg version="1" xmlns="http://www.w3.org/2000/svg" width="1440" height="1440" viewBox="0 0 1080.000000 1080.000000"><path d="M506.9 28.5c-.2.2-5.3.6-11.2 1-5.9.3-11.5.8-12.5 1-.9.1-4.6.6-8.2 1-3.6.3-7.7.8-9.2 1.1-1.6.2-4 .6-5.5.8-8.6 1.3-12 1.9-13.8 2.3-1.1.2-3.1.5-4.5.8-1.4.2-4.5.8-7 1.4-2.5.5-5.8 1.2-7.5 1.5-1.6.3-7.5 1.7-13 3.1-5.5 1.4-10.9 2.8-11.9 3-3.9.9-22.4 6.8-33.1 10.5-38.4 13.3-74.6 31.3-110.1 54.6-10.7 7-36.8 26.2-43.5 32.1-17.1 14.7-23.5 20.7-37.2 34.6C119.2 237.6 77 310 53.6 392c-3.2 11.2-7.5 29.3-9 37.5-.8 4-2.5 13.5-3 16-.8 4.6-2.4 15.8-3.1 22.5-.2 2.4-.7 5.9-.9 7.9-2.8 20.1-2.8 90-.1 104.3.2.9.7 4.8 1 8.5.4 3.7.8 7.5 1 8.3.2.8.7 3.5 1 6 .6 4.5 3 18.3 4 23 .2 1.4 1 5 1.6 8 4.3 21.3 17.4 64.1 25.2 82 .9 1.9 2.4 5.5 3.5 8 16.4 38.3 42.2 82.4 64.5 110 .7.8 2.8 3.5 4.7 6 1.9 2.5 4.4 5.6 5.6 7 1.2 1.4 5.7 6.5 10 11.5 25.6 29.6 63.1 62.4 96.9 84.8 7.2 4.8 13.5 9.1 14.2 9.7.7.5 1.4 1 1.7 1 .3 0 3.8 2 7.8 4.4 12.6 7.7 49.1 26.6 51.2 26.6.3 0 3.4 1.3 6.9 2.9 11.2 5.1 39.8 15.5 52.7 19.2 2.5.7 5 1.4 5.5 1.5 3 1 20.1 5.5 21.9 5.8 1.1.3 6.2 1.4 11.1 2.5 10.6 2.3 12.2 2.6 24 4.5 19.2 3.1 24.3 3.7 44 5.3 17.8 1.5 85.5.6 88.4-1.1.3-.2 4-.7 8.1-1 4.1-.3 8.6-.8 10-1.1 1.4-.3 4.5-.8 7-1.1 3.5-.4 22.4-3.9 32-5.9 37-7.6 87.9-26.2 123.9-45.3 63.6-33.6 113-74.8 161.9-134.7 8.8-10.8 27.2-37.8 36.6-53.5 21.1-35.6 40.9-81.8 51.2-119 1.4-5.3 4.7-18.6 6-24.5 2.4-10.8 2.4-10.8 3-14 .3-1.7.9-4.8 1.4-7 .4-2.2 1.1-6.3 1.5-9 .3-2.8.8-5.7 1-6.5.2-.8.6-3.8 1-6.5.3-2.8.8-6.4 1-8 .3-1.7.7-5.7 1-9 .2-3.3.8-9.2 1.2-13 1.7-14.8.9-74.3-1.2-90.5-.2-1.9-.7-5.5-1-8-1.9-15.3-3-22.3-6.1-38-1.9-9.6-3.7-18.4-3.9-19.6-.9-4.3-8.7-31.2-11.1-38.4-3.8-11.1-12.3-33.7-15-39.8-1.3-2.9-2.4-5.5-2.4-5.7 0-1.9-19.9-40.7-26.3-51.2-2-3.3-4.2-7.1-5-8.4-2-3.9-16.8-25.8-22-32.9-2.7-3.6-5.6-7.6-6.5-8.9-.9-1.3-2.2-2.8-2.7-3.5-.6-.6-2.8-3.4-5-6.1-22.7-28.6-57.8-63.1-85-83.4-4.4-3.3-8.5-6.5-9.2-7.1-4.2-3.6-26.1-18.1-38.9-25.8-41.5-25-86-43.6-132.4-55.6-9.8-2.5-26.2-6.2-31.5-7.1-1.6-.3-3.9-.7-5-.9-1.1-.2-5.6-.9-10-1.6-4.4-.6-9.3-1.4-11-1.6-1.6-.3-4.8-.7-7-.9-9.5-1-15.3-1.6-19.5-2.1-5.1-.7-68.6-1.5-69.1-.9zm133.6 245c7.1 1.1 9.5 1.8 19.5 5.1 21.9 7.3 51 25.1 78.5 47.9 5.8 4.8 21.1 18.2 24.1 21 16 15.3 32 31.5 39.9 40.6 11.3 12.7 32.5 40.7 32.5 42.8 0 .5.3 1.1.8 1.3 2.8 1.2 21.4 36.5 27.5 52.3 11.6 29.9 16.6 60.2 13.6 82-1.8 13-9 23.5-19.9 29-5.8 2.9-6 3-14.5 3.9-3.3.4-7.1.9-8.5 1.1-1.4.2-4.5.7-7 1-2.5.3-5.6.8-7 1-1.4.2-4.7.6-7.5 1-2.7.3-6.1.8-7.5 1-1.4.2-4.7.6-7.5 1-2.7.3-6.1.8-7.5 1-2.3.3-22.2 3-31 4.1-1.9.2-8.4 1.1-14.5 2-6 .8-13 1.7-15.5 2-2.5.3-5.6.7-7 .9-2.7.4-5.6.8-19 2.5-4.7.6-9.6 1.3-11 1.5-1.4.2-4.4.6-6.7.9-2.4.3-6.2.9-8.5 1.2-2.4.3-5.4.7-6.8.9-1.4.2-4.7.6-7.5.9-19.5 2.4-20.1 2.6-23.5 6.7-7.8 9.8-21.3 11.2-31.6 3.4-1.7-1.3-4-2.3-5-2.1-1.1.2-4.8.7-8.4 1.1-3.6.5-7.2.9-8 1-2.3.3-18.2 2.6-21 3-1.4.2-5 .7-8 1-3 .4-6.2.9-7.1 1-.8.2-4 .6-7 .9-3 .3-6.3.8-7.5 1-1.2.2-4.5.7-7.5 1.1-3 .3-6.5.8-7.9 1-1.4.3-4.7.7-7.5 1-2.7.3-6.1.7-7.5 1-2.7.4-15.4 2.1-23.5 3-5.5.7-9.6 1.3-13.5 2-1.4.2-4.7.7-7.5 1-5.4.7-5.3.6-22.5 3-6.3.9-13.1 1.8-15 2-1.9.2-10.2 1.4-18.5 2.5-8.2 1.2-17 2.3-19.5 2.6-5.5.7-5.6.7-6.3 4.1-.9 4.5-4.9 9.5-10.1 12.7-4.1 2.6-5.9 3.1-11.1 3-5.2 0-7.1-.5-11.1-3-2.7-1.6-6-4.6-7.3-6.7-2.4-3.6-2.4-3.6-8-3-3.1.3-5.7.7-5.9.8-.1.1-.3 5.1-.4 11.1-.1 6.3-.7 12.6-1.5 14.8-6.4 18.6-31.5 20.7-40.4 3.4-2.4-4.7-2.7-6.6-2.8-15.7l-.1-7.3-5.7.6c-3.2.3-6.7.8-7.8 1-1.1.2-4.9.7-8.5 1.1-3.6.4-8.5 1-11 1.5-6.2 1.1-6.2 1.1-18 1.5-8.8.3-11.4 0-15.8-1.7-13-5.1-22.2-19-22.2-33.8 0-6.4 2.1-14.1 4.8-17.5 1.1-1.4 22.8-19.2 48.3-39.6 25.5-20.3 47.3-37.8 48.4-38.7 1.1-.9 9.9-8 19.5-15.7 9.6-7.7 17.7-14.2 18-14.6.3-.3 1.3-1 2.2-1.5.9-.5 3.8-2.8 6.5-5 2.6-2.3 11.1-9.2 18.8-15.3 7.7-6.2 14.7-11.8 15.5-12.4.8-.7 6.5-5.2 12.5-10 6.1-4.9 11.7-9.4 12.6-10.1.9-.7 25.2-20.2 54-43.2 28.8-23 52.6-42.1 52.9-42.4.3-.3 13.6-11 29.7-23.9l29.2-23.3 1.2-5.7c5.5-27 28.2-49.9 52.2-52.7 2.9-.4 5.3-.8 5.5-.9.4-.4 14 .4 17.7 1z"/><path d="M621.9 282.4c-.2.2-2.5.6-5.1.9-2.6.3-8 2.2-12 4.1-11.2 5.5-19.1 13.8-24.8 26.1-1.8 3.9-3.7 7.8-4.1 8.7-.5 1-.9 2.1-.9 2.6s6 .8 13.3.8c17.6-.1 21.9.6 38.5 6 31.7 10.3 63.2 31.4 97.2 64.9 23.6 23.3 38.5 42 55.9 70 10.4 16.8 22 44.1 27.1 63.6 1.2 4.6 2.4 9 2.6 9.8.3.9 1.8-.1 4.7-2.9 2.3-2.4 7.1-5.7 10.7-7.4 5.7-2.7 7.5-3.1 15-3 9.8 0 17.2 2.6 23 8.1 1.9 1.8 3.6 2.9 3.8 2.4.3-.8-1.4-10.8-3.3-20.5-.3-1.6-2.2-7.8-4.1-13.8-15.2-47.1-44.1-90.6-89.8-135.1-39.5-38.6-74.9-64.8-104.1-76.9-3.8-1.6-7.7-3.1-8.5-3.3-.8-.2-4.8-1.3-8.8-2.5-6.3-1.8-25.2-3.6-26.3-2.6z"/><path d="M586.7 334.6c-.1.1-2.7.5-5.7.8-3 .4-6.6 1.2-8 1.9-1.9 1-82.4 64.9-95.5 75.9-1.6 1.3-46.7 37.4-113.8 91-4.4 3.5-11.8 9.5-16.5 13.3-4.8 3.9-18.8 15.1-31.2 25-12.4 9.9-22.7 18.2-23 18.5-.3.3-5.9 4.8-12.5 10s-12.2 9.7-12.5 10c-.3.3-3.6 3-7.5 6-3.8 3-7.2 5.7-7.5 6-.3.3-2.5 2.1-5 4s-4.7 3.7-5 4c-.3.3-9 7.4-19.5 15.7-10.4 8.3-19.6 16.1-20.3 17.2-1.6 2.8-1.5 6.2.3 8.8 1.1 1.6 2.3 2 4.7 1.7 1.8-.2 5.6-.6 8.3-.9 2.8-.3 6.1-.7 7.5-1 1.4-.2 4.8-.7 7.5-1 2.8-.3 6.6-.8 8.5-1.1 1.9-.3 5.3-.7 7.5-1 2.2-.2 9-1.1 15-1.9 6.1-.9 12.5-1.6 14.2-1.8 2.6-.1 3.3-.7 3.3-2.3 0-2.8 1.9-4.4 5.2-4.4 2 0 3.1.6 3.7 2.2.4 1.3.8 14.7.8 29.8 0 15.2.3 28.8.7 30.4.8 3 1.7 4.2 5.6 6.9 5.7 3.9 15.4.5 17.6-6.3.8-2.3 1.2-13.1 1.2-30.5.1-38.8-.2-35.4 2.6-36.6 2.8-1.3 6.6.3 6.6 2.7 0 1.3.9 1.4 5.1 1 2.9-.3 5.3-.7 5.3-.8.1-.2.6-1.7 1.2-3.3.7-2.2 1.7-3.1 3.5-3.3 5.3-.6 5.7 1 5.8 21.9 0 18.3.1 19.3 2.3 22.5 3.7 5.5 10.8 6.9 16.5 3.4 5.6-3.4 6.1-5.4 6-27 0-10.8.3-20.8.6-22.3 1-3.8 5.4-4.8 7.9-1.7 1 1.2 1.6 2.6 1.3 3-.5.8.8.8 10-.4 2.2-.3 6-.8 8.5-1.1 4.3-.5 16.7-2.2 22-3 1.4-.2 4.9-.7 7.9-1 3-.4 6.1-.8 7-1 .9-.1 3.9-.6 6.6-.9 17.8-2.3 23.5-3 30.5-4 1.9-.3 5.7-.8 8.4-1.2 2.7-.3 5.6-.7 6.5-.9.9-.1 4.3-.6 7.6-.9 3.3-.4 8.5-1.1 11.5-1.6s8-1.2 11-1.5c3-.3 6.6-.8 8-1 1.4-.2 4.5-.7 7-1 2.5-.3 7.4-1 11-1.5 8.1-1.2 10.5-1.5 26-3.5 6.9-.9 13.6-1.8 15-2 1.4-.3 5.1-.8 8.3-1.1 5.4-.6 5.9-.9 7.2-4 1.1-2.8 1.9-3.4 4.4-3.4 2 0 3.4.7 4.1 1.9.5 1.1 1 8.4 1 16.4 0 7.9.5 15.7 1 17.3 1.3 3.8 6.7 7.4 11.1 7.4 4.3 0 7.6-1.7 10.3-5.3 1.9-2.6 2.1-4.3 2.3-21.5.1-16.5.4-18.8 1.9-19.9 2.7-2 5.2-1.6 7 1.3 1.8 2.7 3.1 2.7 15.4.9 2.4-.3 11.2-1.5 15.5-2 1.1-.2 3.8-.6 6.1-.9 2.3-.4 6-.9 8.4-1.1 2.3-.2 5-.7 5.9-.9.9-.3 4.5-.8 8.1-1.1 3.6-.3 7.2-.8 8-1 .8-.2 3.9-.7 6.9-1 3-.4 6.3-.8 7.4-1.1 1-.2 4.5-.6 7.6-.9 3.1-.4 6.3-.8 7.1-1 .8-.2 4-.7 7-1 3-.3 6.6-.8 8-1 1.4-.2 4.5-.7 7-1 2.5-.4 5.6-.8 7-1 1.4-.2 5-.7 8-1 3-.4 6.2-.9 7.1-1 .9-.2 4-.6 7-1 7.9-1.1 9.2-1.2 11.3-1.4 1.7-.1 1.8-.7 1.2-6.4-1.1-10.2-1.5-12.3-3.7-21.4-11-45.6-38.2-90.9-79-131.3-14.8-14.7-17.2-16.8-30.2-27.3-28.7-23-56.9-37.4-82.9-42.3-3.4-.6-19.7-2.1-20.1-1.8zm-23.5 34.1c2.1 2.4 3.8 8.7 3.2 12.1-1.4 9-4.2 12.7-12.4 17.1-8.1 4.4-9.4 6.5-8.6 14.2.8 6.8-.2 8.9-4 8.9-3.5 0-5.7-4.2-6-11.3-.4-9.2 2.9-14.2 12.6-19.4 3.3-1.8 6.3-4.3 7.4-6.3 1.7-2.9 1.8-3.8.7-7.8-1-3.8-.9-4.8.4-6.8 1.8-2.8 4.6-3.1 6.7-.7zm65.8 12.5c8 3.2 12.5 6.3 18.5 12.4 5.1 5.3 11.2 15.8 12.1 21.1.3 1.5.7 3 1 3.5 1.3 2.1.4 17.7-1.4 23.5-2.3 7.4-6.5 14.9-9.2 16.3-4.2 2.3-6.9 1.2-14.3-5.9l-7.2-7-12.5 12.3c-11.1 11-13.1 12.4-17 13.2-9 1.6-13.2-.2-22.2-9.3-7.3-7.3-9.7-12.3-9.2-18.6.5-5.9 2.9-9.3 14.5-21.1 6-6 10.8-11.3 10.7-11.7-.2-.4-2.8-3.4-5.9-6.6-9.4-9.8-8.8-14.3 2.5-19.8 3.9-2 9.1-4 11.6-4.5 7.3-1.5 21.7-.4 28 2.2zm87.7 46.1c.6.7 5.2 8.3 10.2 16.9 20.6 35.6 19.7 33.7 18 37.3-.9 1.8-4.2 4.4-8.9 7.2-4.1 2.4-8.2 4.8-9 5.3-3.6 2.5-7.9 3.9-10.1 3.3-4.1-1-4.2-1-13.2-17.3-1.7-3-4.8-8.3-6.9-11.8-2.1-3.4-3.8-6.4-3.8-6.6 0-.2-1.8-3.3-4-6.9-4.6-7.7-5.5-11.3-3.5-14.3 1.3-2.1 17.4-12.2 22.7-14.4 2.6-1.1 6.8-.4 8.5 1.3zm-202.2 5.2c6.4 1.3 16 6 18.3 9 4.5 5.6 4.5 5.6-28.5 38.7-33.1 33.1-34.3 34-39.5 29.8-3.4-2.6-7.6-11.4-9.2-19.2-5.4-25.8 10.9-51.5 37-58.2 5.3-1.3 15.6-1.4 21.9-.1zm117.2 49.8c11.2 3.9 18.6 8.8 27.2 18 2 2.1 6.5 5.8 10.1 8.1 6.2 4.1 18.5 9.6 21.4 9.6 2 0 7.6 6.7 7.7 9.3.3 4.2 0 7.2-1.1 9.2-.5 1.1-2.5 6.5-4.5 12-4.7 13.4-5.2 14.2-9.9 16.4-4.9 2.4-8 2.1-17.6-1.8-10.3-4.2-15.1-7.4-24-15.9-10.1-9.5-16-13.3-27.2-17.3-13.7-4.9-16.1-9.8-11.4-23 7.9-22.7 8.7-24.2 14-26.4 3.8-1.6 6.6-1.3 15.3 1.8zm-221.2 32.2c18 10.3 17.8 8.2 2.5 35-1 1.6-5 8.6-8.9 15.5-10.4 18.1-11.2 18.4-23.6 11.1-4.8-2.8-8.9-5.1-9.2-5.1-.4 0-2.1-1.1-3.9-2.5-5.4-4.1-5.3-6.9.8-17.5 7.2-12.6 10.3-17.9 17.1-29.8 6.2-10.9 8.8-13.5 12.7-12.8 1.4.2 7 2.9 12.5 6.1zm150.2-3.9c8.2 3 12.6 10.9 12.2 22.1-.4 9.2.4 10.3 10.4 14.2 3.4 1.3 4.3 3.5 2.9 6.7-1.4 2.9-4.3 3.1-10.4.8-9.4-3.7-13.2-10-13-21.6.2-6.8-.1-8-2.3-10.6-1.5-1.8-3.9-3.2-6-3.6-3-.6-6.5-3.7-6.5-5.8 0-.5.9-1.7 2.1-2.9 2.1-2.1 2.8-2.1 10.6.7zm-50.3 3.9c3 2 10.2 16.4 11.2 22.5 1.7 11 1 18.5-2.8 28-8.4 21.1-30.6 33.7-53.2 30.2-9.9-1.5-18-5.4-19.6-9.3-1.7-4-.7-6.1 8.8-17.3 4.2-5 8.4-10 9.4-11.1 16.8-20.3 28.8-34.6 31-37 1.5-1.7 2.8-3.3 2.8-3.8 0-1.3 6.2-4.5 8.1-4.2.9.2 2.9 1.1 4.3 2zm237.7 6c2.2 1.4 5.5 5 7.5 8 2.1 3.2 4.7 5.7 6.2 6.2 3.3 1.1 3.5 1.1 9.6-.6 4.7-1.4 5-1.3 6.7.7 2.6 3.3 1.3 6.1-3.8 8.3-9.5 4.1-18.7 1.5-25-7.1-7.3-9.8-8.9-10.5-17.3-7.5-3.9 1.4-4.5 1.4-6.2-.1-2.9-2.7-2.3-6.1 1.4-8 7.8-4.1 14.7-4 20.9.1zm-438.3 66.7c3.1 1.8 6.8 3.6 8.1 4 2.6.8 8-1.5 9.4-3.9 1.4-2.3 5.5-3.4 7.7-2 3.2 2 2.5 6-1.7 9.7-8.2 7.3-16.6 7.8-26.8 1.6-3.3-2-7-3.6-8.3-3.6-2.9 0-7.2 2.2-9.4 4.9-2.1 2.5-5.1 2.7-7.2.5-2.6-2.6-1.8-5 3.1-9.3 7.9-7 15.3-7.6 25.1-1.9z"/><path d="M833 536.7c-13.5 4.6-21.2 15.2-20.3 28 .4 6.8-1.4 9-8.6 9.8-3 .4-6.1.8-7 1-.9.1-4.3.6-7.6 1-3.2.4-6.6.8-7.5 1-2.3.4-9.9 1.4-15.5 2-2.7.3-6.1.8-7.5 1-1.4.3-4.7.7-7.5 1.1-2.7.3-5.7.8-6.6.9-.9.2-4 .6-7 1-3 .3-6.5.8-7.9 1-1.4.2-6.3.9-11 1.5s-9.6 1.3-11 1.5c-1.4.2-4.1.6-6 .9-15.3 2.1-19.9 2.7-22.5 3.1-10.8 1.3-15.1 1.9-15.5 2-.3.1-3.6.5-7.5 1-3.8.5-7.3 1-7.7 1.1-.5.1-1.8.2-3.1.3-2.1.1-2.2.4-2.2 9.5 0 5.2.3 9.7.6 10.1.4.3 4.5.1 9-.5 14.4-1.9 15.3-2.1 17.9-2.5 1.4-.2 5.2-.7 8.5-1 3.3-.4 6.7-.8 7.5-1 .8-.2 4.2-.7 7.5-1 3.3-.4 6.7-.8 7.5-1 .8-.2 4.2-.7 7.5-1.1 3.3-.3 6.7-.8 7.6-.9.9-.2 4-.6 7-1 3-.3 6.1-.8 6.9-1 .8-.2 4.4-.7 8-1 3.6-.4 6.7-.8 7-1 .3-.2 3.9-.6 8-1s7.7-.8 8-1c.3-.2 3.4-.6 7-1s7.2-.9 8.1-1c.9-.2 4-.6 7-1 3-.3 6.5-.8 7.9-1 1.4-.2 7.9-1.1 14.5-2 6.6-.9 16.5-2.2 22-3 5.5-.7 12.2-1.6 14.9-2 7-.9 10.9-2.8 15.9-7.8 16.6-16.6 4-46-19.6-45.6-2.8 0-5.9.3-6.7.6zM593 603c-2.5.4-7.2 1.1-10.5 1.4-3.3.4-8.5 1.1-11.5 1.6s-8 1.2-11 1.5c-3 .3-8.2 1-11.5 1.5-7.2 1.1-12.5 1.8-18.4 2.5-2.3.3-5.5.7-7 .9-1.4.3-5 .8-8 1.1-3 .4-6.3.8-7.4 1.1-1 .2-4.5.6-7.6 1-3.1.3-6.4.8-7.5 1-1 .2-4.4.6-7.5 1-3.1.3-6.3.8-7.2.9-.9.2-4 .6-7 1-3 .3-6.5.8-7.9 1-7.2 1.1-22.7 3.2-29.5 4-2.7.4-6.1.8-7.5 1-1.4.2-4.7.7-7.5 1-2.7.4-6.1.8-7.5 1-1.4.2-4.7.7-7.5 1-2.7.4-5.7.8-6.5 1-.8.2-4.6.7-8.5 1-3.8.4-7.4 1.1-8 1.6-.5.6-1 5.1-1 10.1l-.1 9 6.1-.6c3.3-.3 7.1-.8 8.5-1 1.4-.3 4.8-.7 7.5-1.1 2.8-.3 6.4-.8 8-1 1.7-.3 6.6-.9 11.1-1.5 4.4-.6 8.9-1.2 10-1.4 1-.2 4.8-.7 8.4-1.1 3.6-.3 7.2-.8 8-1 .8-.2 4-.7 7-1 3-.3 6.2-.8 7-1 .8-.2 4.2-.6 7.5-1 3.3-.3 7.1-.8 8.5-1 1.4-.2 4.5-.7 7-1 4.2-.5 9.1-1.2 15-2 4.3-.7 10.4-1.5 14-1.9 7.3-.9 28.6-3.7 31-4.1 8.6-1.2 10.9-1.6 14.5-2 9.9-1.2 34-4.5 37-5 1.1-.2 2.5-.4 3.2-.4.6-.1 1-.9.8-1.9-.2-.9-.4-5.4-.4-10-.1-4.5-.4-8.1-.8-8.1-.5.1-2.8.5-5.3.9zM327.5 638.9l-3 .6v19l4.5-.4c2.5-.1 4.8-.5 5.3-.8.4-.2.7-4.7.7-9.9 0-10.4.2-10.2-7.5-8.5zM271.5 646.1c-2.2.4-6.9 1-10.4 1.3-3.5.3-7.3.8-8.5 1.1-1.1.2-4.3.7-7.1 1-2.7.4-6.6.9-8.5 1.1-1.9.2-8.7 1.1-15 1.9-6.3.8-13.3 1.5-15.6 1.5-3.7 0-4.2.2-3.7 2 .3 1.1 2.5 4.3 5 7 7.3 8.1 14.3 9.6 33.3 7.1 5.2-.7 10.2-1.5 11.1-1.6.9-.2 4-.6 6.9-1 2.9-.4 6-.8 6.9-1 .9-.1 4.4-.6 7.9-1l6.2-.7v-9.9c0-11.1.7-10.4-8.5-8.8z"/></svg>